<svg height="512" viewBox="0 0 256 256" width="512" xmlns="http://www.w3.org/2000/svg"><rect fill="#63bce7" height="215.702" rx="17.46" width="123.437" x="32.709" y="14.662"/><path d="m42.209 212.9v-180.778a17.46 17.46 0 0 1 17.46-17.46h-9.5a17.46 17.46 0 0 0 -17.46 17.46v180.778a17.46 17.46 0 0 0 17.46 17.46h9.5a17.46 17.46 0 0 1 -17.46-17.46z" fill="#6377e7"/><path d="m32.709 212.909a17.456 17.456 0 0 0 17.456 17.456h88.525a17.456 17.456 0 0 0 17.456-17.456v-10.315h-123.437z" fill="#f46275"/><path d="m42.209 212.909v-10.315h-9.5v10.315a17.456 17.456 0 0 0 17.456 17.456h9.5a17.456 17.456 0 0 1 -17.456-17.456z" fill="#f43075"/><path d="m156.146 32.118a17.456 17.456 0 0 0 -17.456-17.456h-88.525a17.456 17.456 0 0 0 -17.456 17.456v10.315h123.437z" fill="#f46275"/><path d="m59.665 14.662h-9.5a17.456 17.456 0 0 0 -17.456 17.456v10.315h9.5v-10.315a17.456 17.456 0 0 1 17.456-17.456z" fill="#f43075"/><path d="m72.34 25.431h43.639v6.234h-43.639z" fill="#f8af23"/><circle cx="93.848" cy="216.961" fill="#f8af23" r="5.299"/><path d="m156.144 48.877v47.161l-9.283-10.891a10.82 10.82 0 0 0 -15.209-1.212 10.82 10.82 0 0 0 -1.212 15.209l21.117 24.775s-6.3 26.6 10.311 41.8h46.968l-4.164-57.138c-.5-5.277-3.754-9.741-7.062-13.433z" fill="#f8af23"/><path d="m204.674 108.576c-.5-5.277-3.754-9.741-7.062-13.432l-41.467-46.267v10.6l31.967 35.667c3.309 3.692 6.563 8.156 7.062 13.432l4.164 57.138h9.5z" fill="#f8d323"/><path d="m141.096 165.714h82.195v29.176h-82.195z" fill="#9e9e9e"/><path d="m213.791 165.714h9.5v29.176h-9.5z" fill="#cecece"/><path d="m145.966 194.891h72.454v35.474h-72.454z" fill="#63bce7"/><path d="m208.92 194.891h9.5v35.474h-9.5z" fill="#63e2e7"/><g fill="#3f3679"><path d="m72.341 33.165h43.639a1.5 1.5 0 0 0 1.5-1.5v-6.234a1.5 1.5 0 0 0 -1.5-1.5h-43.639a1.5 1.5 0 0 0 -1.5 1.5v6.234a1.5 1.5 0 0 0 1.5 1.5zm1.5-6.234h40.639v3.234h-40.639z"/><path d="m93.849 210.162a6.8 6.8 0 1 0 6.8 6.8 6.806 6.806 0 0 0 -6.8-6.8zm0 10.6a3.8 3.8 0 1 1 3.8-3.8 3.8 3.8 0 0 1 -3.8 3.799z"/><path d="m56.409 100.042a1.5 1.5 0 0 0 1.5-1.5v-9.6h9.6a1.5 1.5 0 0 0 0-3h-11.1a1.5 1.5 0 0 0 -1.5 1.5v11.1a1.5 1.5 0 0 0 1.5 1.5z"/><path d="m67.51 156.086h-9.6v-9.6a1.5 1.5 0 0 0 -3 0v11.1a1.5 1.5 0 0 0 1.5 1.5h11.1a1.5 1.5 0 0 0 0-3z"/><path d="m132.446 144.984a1.5 1.5 0 0 0 -1.5 1.5v9.6h-9.6a1.5 1.5 0 0 0 0 3h11.1a1.5 1.5 0 0 0 1.5-1.5v-11.1a1.5 1.5 0 0 0 -1.5-1.5z"/><path d="m87.586 95.3h-20.076a1.5 1.5 0 0 0 -1.5 1.5v20.076a1.5 1.5 0 0 0 1.5 1.5h20.076a1.5 1.5 0 0 0 1.5-1.5v-20.076a1.5 1.5 0 0 0 -1.5-1.5zm-1.5 20.076h-17.076v-17.076h17.076z"/><path d="m101.269 118.374h20.076a1.5 1.5 0 0 0 1.5-1.5v-20.074a1.5 1.5 0 0 0 -1.5-1.5h-20.076a1.5 1.5 0 0 0 -1.5 1.5v20.076a1.5 1.5 0 0 0 1.5 1.498zm1.5-20.076h17.076v17.076h-17.076z"/><path d="m87.586 126.652h-20.076a1.5 1.5 0 0 0 -1.5 1.5v20.077a1.5 1.5 0 0 0 1.5 1.5h20.076a1.5 1.5 0 0 0 1.5-1.5v-20.077a1.5 1.5 0 0 0 -1.5-1.5zm-1.5 20.077h-17.076v-17.077h17.076z"/><path d="m122.845 148.229v-20.077a1.5 1.5 0 1 0 -3 0v18.577h-18.576a1.5 1.5 0 1 0 0 3h20.076a1.5 1.5 0 0 0 1.5-1.5z"/><path d="m74.251 111.633h6.594a1.5 1.5 0 0 0 1.5-1.5v-6.594a1.5 1.5 0 0 0 -1.5-1.5h-6.594a1.5 1.5 0 0 0 -1.5 1.5v6.594a1.5 1.5 0 0 0 1.5 1.5zm1.5-6.594h3.594v3.594h-3.594z"/><path d="m101.269 136.246h6.594a1.5 1.5 0 0 0 1.5-1.5v-6.594a1.5 1.5 0 0 0 -1.5-1.5h-6.594a1.5 1.5 0 0 0 -1.5 1.5v6.594a1.5 1.5 0 0 0 1.5 1.5zm1.5-6.594h3.594v3.594h-3.594z"/><path d="m115.726 105.336h-8.838a1.5 1.5 0 0 0 0 3h8.838a1.5 1.5 0 0 0 0-3z"/><path d="m73.129 139.691h8.838a1.5 1.5 0 0 0 0-3h-8.838a1.5 1.5 0 0 0 0 3z"/><path d="m113.27 128.152v11h-3.48a1.5 1.5 0 0 0 0 3h4.98a1.5 1.5 0 0 0 1.5-1.5v-12.5a1.5 1.5 0 1 0 -3 0z"/><path d="m104.565 142.147a1.5 1.5 0 0 0 0-3h-3.9a1.5 1.5 0 1 0 0 3z"/><path d="m56.409 138.358a1.5 1.5 0 0 0 1.5-1.5v-28.409a1.5 1.5 0 0 0 -3 0v28.409a1.5 1.5 0 0 0 1.5 1.5z"/><path d="m132.446 106.949a1.5 1.5 0 0 0 -1.5 1.5v28.409a1.5 1.5 0 0 0 3 0v-28.409a1.5 1.5 0 0 0 -1.5-1.5z"/><path d="m199.076 181.165a1.5 1.5 0 0 0 0 3h9.762a1.5 1.5 0 0 0 0-3z"/><path d="m27.323 239.838h-18a1.5 1.5 0 0 0 0 3h18a1.5 1.5 0 1 0 0-3z"/><path d="m246.68 239.838h-18a1.5 1.5 0 0 0 0 3h18a1.5 1.5 0 0 0 0-3z"/><path d="m218.479 239.838h-180.958a1.5 1.5 0 0 0 0 3h180.958a1.5 1.5 0 0 0 0-3z"/><path d="m9.32 231.865h237.36a1.5 1.5 0 0 0 0-3h-26.759v-32.474h3.37a1.5 1.5 0 0 0 1.5-1.5v-29.177a1.5 1.5 0 0 0 -1.5-1.5h-13.058l-4.066-55.779c-.562-5.939-4.271-10.758-7.438-14.292l-41.083-45.843v-16.182a18.978 18.978 0 0 0 -18.956-18.956h-88.525a18.978 18.978 0 0 0 -18.956 18.956v180.791a18.943 18.943 0 0 0 8.763 15.956h-30.652a1.5 1.5 0 0 0 0 3zm24.889-187.931h120.437v48.032l-6.646-7.791a12.256 12.256 0 0 0 -19.944 1.767h-6.715a1.5 1.5 0 0 0 0 3h5.459a12.279 12.279 0 0 0 2.5 11.176l20.636 24.21c-.779 3.848-3.583 20.977 4.722 34.871 0 .039-.011.075-.011.115v4.9h-13.547a1.5 1.5 0 0 0 -1.5 1.5v29.177a1.5 1.5 0 0 0 1.5 1.5h3.37v4.7h-110.261zm124.1 120.28h-.663v-.787c.217.263.434.527.662.787zm-108.14 64.651a15.977 15.977 0 0 1 -15.96-15.96v-8.812h110.257v23.669a15.822 15.822 0 0 1 -5.78 1.1zm166.752 0h-69.455v-32.474h69.455zm4.87-35.475h-79.191v-9.226h45.9a1.5 1.5 0 0 0 0-3h-45.9v-13.95h79.2zm-25.3-97.246c2.861 3.192 6.206 7.506 6.684 12.541l4.047 55.528h-44.762c-15.229-14.479-9.5-39.694-9.442-39.95a1.5 1.5 0 0 0 -.318-1.317l-21.118-24.774a9.3 9.3 0 0 1 1.044-13.095 9.321 9.321 0 0 1 13.094 1.043l9.28 10.891 17.626 20.679a1.5 1.5 0 0 0 2.283-1.945l-17.263-20.258v-42.687zm-57.805-79.982a15.977 15.977 0 0 1 15.96 15.96v8.812h-120.437v-8.812a15.977 15.977 0 0 1 15.96-15.96z"/></g></svg>